<!--?xml version="1.0" encoding="UTF-8" standalone="no"?-->
<svg viewport-fill="#2C3E50" xmlns:dc="http://purl.org/dc/elements/1.1/" xmlns:cc="http://creativecommons.org/ns#" xmlns:rdf="http://www.w3.org/1999/02/22-rdf-syntax-ns#" xmlns:svg="http://www.w3.org/2000/svg" xmlns="http://www.w3.org/2000/svg" id="svg5" viewBox="0 0 1024 768" height="768px" width="1024px" version="1.1">
  
  <defs id="defs9"></defs>
  <style><![CDATA[   #tagline path, #tagline polygon{ fill: #BCCAD6 !important; }  #logo-group > rect { fill-opacity: 0; } ]]> </style><g id="logo-group"><rect x="0" y="0" width="1024" height="768" style="fill: #2C3E50" />
    <g id="title" style="font-style:normal;font-weight:800;font-size:72px;line-height:1;font-family:'Montserrat ExtraBold Alt1';font-variant-ligatures:none;text-align:center;text-anchor:middle" aria-label="SVA">
      <path id="path13" style="font-style: normal; font-weight: 800; font-size: 72px; line-height: 1; font-family: &quot;Montserrat ExtraBold Alt1&quot;; font-variant-ligatures: none; text-align: center; text-anchor: middle; fill: rgb(112, 121, 128);" d="m 445.17669,119.496 c 3.816,1.008 7.776,1.512 11.88,1.512 4.752,0 8.856,-0.72 12.24,-2.16 3.312,-1.44 5.832,-3.456 7.56,-5.904 1.656,-2.448 2.52,-5.184 2.52,-8.208 0,-3.456 -0.936,-6.264 -2.808,-8.28 -1.872,-2.016 -4.032,-3.528 -6.552,-4.464 -2.52,-0.936 -5.688,-1.8 -9.504,-2.664 -3.456,-0.72 -5.904,-1.368 -7.416,-2.088 -1.584,-0.648 -2.304,-1.656 -2.304,-3.024 0,-1.296 0.648,-2.376 1.944,-3.24 1.296,-0.864 3.312,-1.296 6.192,-1.296 4.464,0 9.144,1.296 13.968,3.888 l 4.392,-10.584 c -2.448,-1.44 -5.328,-2.52 -8.496,-3.24 -3.24,-0.72 -6.48,-1.152 -9.792,-1.152 -4.896,0 -9,0.72 -12.312,2.16 -3.312,1.44 -5.832,3.456 -7.488,5.904 -1.728,2.448 -2.52,5.256 -2.52,8.28 0,3.528 0.864,6.336 2.736,8.352 1.8,2.088 3.96,3.6 6.552,4.536 2.52,0.936 5.688,1.8 9.504,2.592 3.456,0.792 5.904,1.512 7.488,2.232 1.584,0.72 2.376,1.728 2.376,3.168 0,2.736 -2.736,4.104 -8.208,4.104 -2.88,0 -5.832,-0.432 -8.784,-1.368 -3.024,-0.864 -5.616,-2.088 -7.848,-3.6 l -4.68,10.512 c 2.376,1.728 5.472,3.024 9.36,4.032 z" transform="translate(0 -95.73792) translate(161.07766379999987 291.44383999999997) scale(4.52) translate(-435.81669 -68.592)"></path>
      <path id="path15" style="font-style: normal; font-weight: 800; font-size: 72px; line-height: 1; font-family: &quot;Montserrat ExtraBold Alt1&quot;; font-variant-ligatures: none; text-align: center; text-anchor: middle; fill: rgb(150, 161, 171);" d="m 495.46756,69.6 h -15.408 l 14.328,33.696 7.704,-17.64 z m 27.648,0 -13.968,32.832 -7.56,17.568 h 14.04 l 21.6,-50.4 z" transform="translate(0 -95.73792) translate(361.9594361999998 295.99999999999994) scale(4.52) translate(-480.05956 -69.6)"></path>
      <path id="path17" style="font-style: normal; font-weight: 800; font-size: 72px; line-height: 1; font-family: &quot;Montserrat ExtraBold Alt1&quot;; font-variant-ligatures: none; text-align: center; text-anchor: middle; fill: rgb(188, 202, 214);" d="m 568.37206,69.6 h -14.04 l -22.248,50.4 h 14.544 l 3.96,-9.792 4.176,-10.512 6.48,-16.128 6.48,16.128 4.176,10.512 3.96,9.792 h 14.832 z" transform="translate(0 -95.73792) translate(598.0141762000002 295.99999999999994) scale(4.52) translate(-532.08406 -69.6)"></path>
    </g>
    <g id="tagline" style="font-style:normal;font-weight:normal;font-size:32px;line-height:1;font-family:'Nunito Sans';font-variant-ligatures:none;text-align:center;text-anchor:middle" aria-label="solutions">
      <path id="path20" style="font-style: normal; font-weight: normal; font-size: 32px; line-height: 1; font-family: &quot;Nunito Sans&quot;; font-variant-ligatures: none; text-align: center; text-anchor: middle; fill: rgb(188, 202, 214);" d="m 455.6175,250.224 q -3.936,0 -6.24,-2.016 l 0.864,-1.92 q 1.248,0.992 2.528,1.44 1.312,0.416 2.944,0.416 1.728,0 2.624,-0.576 0.928,-0.608 0.928,-1.728 0,-0.928 -0.608,-1.472 -0.608,-0.544 -2.016,-0.864 l -2.624,-0.608 q -1.984,-0.448 -3.04,-1.536 -1.056,-1.088 -1.056,-2.688 0,-2.08 1.632,-3.36 1.632,-1.28 4.352,-1.28 1.632,0 3.104,0.544 1.472,0.512 2.464,1.504 l -0.864,1.888 q -2.144,-1.824 -4.704,-1.824 -1.632,0 -2.56,0.64 -0.896,0.608 -0.896,1.728 0,0.928 0.544,1.504 0.576,0.544 1.824,0.832 l 2.656,0.64 q 2.176,0.512 3.232,1.568 1.056,1.024 1.056,2.688 0,2.048 -1.664,3.264 -1.632,1.216 -4.48,1.216 z" transform="translate(0 -191.1081600000001) translate(181.9960799999999 702.5203200000001) scale(3.76) translate(-449.3775 -234.032)"></path>
      <path id="path22" style="font-style: normal; font-weight: normal; font-size: 32px; line-height: 1; font-family: &quot;Nunito Sans&quot;; font-variant-ligatures: none; text-align: center; text-anchor: middle; fill: rgb(188, 202, 214);" d="m 472.1765,250.224 q -2.208,0 -3.904,-0.992 -1.664,-0.992 -2.592,-2.816 -0.896,-1.856 -0.896,-4.288 0,-2.432 0.896,-4.256 0.928,-1.856 2.592,-2.848 1.696,-0.992 3.904,-0.992 2.208,0 3.904,0.992 1.696,0.992 2.592,2.848 0.928,1.824 0.928,4.256 0,2.432 -0.928,4.288 -0.896,1.824 -2.592,2.816 -1.696,0.992 -3.904,0.992 z m 0,-2.144 q 2.304,0 3.52,-1.504 1.248,-1.536 1.248,-4.448 0,-2.848 -1.248,-4.384 -1.248,-1.568 -3.52,-1.568 -2.272,0 -3.52,1.568 -1.248,1.536 -1.248,4.384 0,2.88 1.216,4.416 1.248,1.536 3.552,1.536 z" transform="translate(0 -191.1081600000001) translate(263.61439999999976 702.5203200000001) scale(3.76) translate(-464.7845 -234.032)"></path>
      <path id="path24" style="font-style: normal; font-weight: normal; font-size: 32px; line-height: 1; font-family: &quot;Nunito Sans&quot;; font-variant-ligatures: none; text-align: center; text-anchor: middle; fill: rgb(188, 202, 214);" d="m 483.4625,227.44 h 2.592 V 250 h -2.592 z" transform="translate(0 -191.1081600000001) translate(357.5316799999999 677.7344) scale(3.76) translate(-483.4625 -227.44)"></path>
      <path id="path26" style="font-style: normal; font-weight: normal; font-size: 32px; line-height: 1; font-family: &quot;Nunito Sans&quot;; font-variant-ligatures: none; text-align: center; text-anchor: middle; fill: rgb(188, 202, 214);" d="M 504.02,234.416 V 250 h -2.528 v -2.656 q -0.736,1.408 -2.08,2.144 -1.312,0.736 -2.976,0.736 -2.784,0 -4.192,-1.536 -1.408,-1.568 -1.408,-4.608 v -9.664 h 2.592 v 9.6 q 0,2.08 0.832,3.072 0.832,0.96 2.624,0.96 2.048,0 3.296,-1.312 1.248,-1.344 1.248,-3.52 v -8.8 z" transform="translate(0 -191.1081600000001) translate(408.9440400000001 703.96416) scale(3.76) translate(-490.836 -234.416)"></path>
      <path id="path28" style="font-style: normal; font-weight: normal; font-size: 32px; line-height: 1; font-family: &quot;Nunito Sans&quot;; font-variant-ligatures: none; text-align: center; text-anchor: middle; fill: rgb(188, 202, 214);" d="m 515.6855,248.144 q 0.704,0 1.408,-0.096 l -0.128,2.048 q -0.736,0.128 -1.6,0.128 -2.816,0 -4.256,-1.472 -1.408,-1.472 -1.408,-4.096 v -8.192 h -3.04 v -2.048 h 3.04 v -4.736 h 2.592 v 4.736 h 4.416 v 2.048 h -4.416 v 8 q 0,3.68 3.392,3.68 z" transform="translate(0 -191.1081600000001) translate(492.13591999999994 686.1568) scale(3.76) translate(-506.6615 -229.68)"></path>
      <path id="path30" style="font-style: normal; font-weight: normal; font-size: 32px; line-height: 1; font-family: &quot;Nunito Sans&quot;; font-variant-ligatures: none; text-align: center; text-anchor: middle; fill: rgb(188, 202, 214);" d="m 519.7125,234.416 h 2.592 V 250 h -2.592 z m 2.88,-6.752 v 2.912 h -3.136 v -2.912 z" transform="translate(0 -191.1081600000001) translate(563.9331200000001 678.57664) scale(3.76) translate(-519.4565 -227.664)"></path>
      <path id="path32" style="font-style: normal; font-weight: normal; font-size: 32px; line-height: 1; font-family: &quot;Nunito Sans&quot;; font-variant-ligatures: none; text-align: center; text-anchor: middle; fill: rgb(188, 202, 214);" d="m 533.614,250.224 q -2.208,0 -3.904,-0.992 -1.664,-0.992 -2.592,-2.816 -0.896,-1.856 -0.896,-4.288 0,-2.432 0.896,-4.256 0.928,-1.856 2.592,-2.848 1.696,-0.992 3.904,-0.992 2.208,0 3.904,0.992 1.696,0.992 2.592,2.848 0.928,1.824 0.928,4.256 0,2.432 -0.928,4.288 -0.896,1.824 -2.592,2.816 -1.696,0.992 -3.904,0.992 z m 0,-2.144 q 2.304,0 3.52,-1.504 1.248,-1.536 1.248,-4.448 0,-2.848 -1.248,-4.384 -1.248,-1.568 -3.52,-1.568 -2.272,0 -3.52,1.568 -1.248,1.536 -1.248,4.384 0,2.88 1.216,4.416 1.248,1.536 3.552,1.536 z" transform="translate(0 -191.1081600000001) translate(613.0594000000002 702.5203200000001) scale(3.76) translate(-526.222 -234.032)"></path>
      <path id="path34" style="font-style: normal; font-weight: normal; font-size: 32px; line-height: 1; font-family: &quot;Nunito Sans&quot;; font-variant-ligatures: none; text-align: center; text-anchor: middle; fill: rgb(188, 202, 214);" d="m 552.74,234.032 q 5.6,0 5.6,6.176 V 250 h -2.592 v -9.632 q 0,-2.176 -0.864,-3.168 -0.832,-0.992 -2.688,-0.992 -2.144,0 -3.424,1.312 -1.28,1.312 -1.28,3.552 V 250 H 544.9 v -15.584 h 2.56 v 2.56 q 0.768,-1.44 2.144,-2.176 1.376,-0.768 3.136,-0.768 z" transform="translate(0 -191.1081600000001) translate(706.9766800000001 702.5203200000001) scale(3.76) translate(-544.9 -234.032)"></path>
      <path id="path36" style="font-style: normal; font-weight: normal; font-size: 32px; line-height: 1; font-family: &quot;Nunito Sans&quot;; font-variant-ligatures: none; text-align: center; text-anchor: middle; fill: rgb(188, 202, 214);" d="m 568.3675,250.224 q -3.936,0 -6.24,-2.016 l 0.864,-1.92 q 1.248,0.992 2.528,1.44 1.312,0.416 2.944,0.416 1.728,0 2.624,-0.576 0.928,-0.608 0.928,-1.728 0,-0.928 -0.608,-1.472 -0.608,-0.544 -2.016,-0.864 l -2.624,-0.608 q -1.984,-0.448 -3.04,-1.536 -1.056,-1.088 -1.056,-2.688 0,-2.08 1.632,-3.36 1.632,-1.28 4.352,-1.28 1.632,0 3.104,0.544 1.472,0.512 2.464,1.504 l -0.864,1.888 q -2.144,-1.824 -4.704,-1.824 -1.632,0 -2.56,0.64 -0.896,0.608 -0.896,1.728 0,0.928 0.544,1.504 0.576,0.544 1.824,0.832 l 2.656,0.64 q 2.176,0.512 3.232,1.568 1.056,1.024 1.056,2.688 0,2.048 -1.664,3.264 -1.632,1.216 -4.48,1.216 z" transform="translate(0 -191.1081600000001) translate(795.4400800000002 702.5203200000001) scale(3.76) translate(-562.1275 -234.032)"></path>
    </g>
  </g>
</svg>
